<svg width="1024" height="1024" viewBox="0 0 1024 1024" xmlns="http://www.w3.org/2000/svg">
  <!-- Background with iOS-style gradient -->
  <defs>
    <!-- Guyanese flag-inspired gradient -->
    <linearGradient id="backgroundGradient" x1="0%" y1="0%" x2="100%" y2="100%">
      <stop offset="0%" style="stop-color:#FFD700;stop-opacity:1" />
      <stop offset="30%" style="stop-color:#FF6B35;stop-opacity:1" />
      <stop offset="70%" style="stop-color:#228B22;stop-opacity:1" />
      <stop offset="100%" style="stop-color:#1E90FF;stop-opacity:1" />
    </linearGradient>
    
    <!-- Radio wave gradient -->
    <linearGradient id="waveGradient" x1="0%" y1="0%" x2="100%" y2="0%">
      <stop offset="0%" style="stop-color:#FFFFFF;stop-opacity:0.9" />
      <stop offset="100%" style="stop-color:#FFFFFF;stop-opacity:0.6" />
    </linearGradient>
    
    <!-- Shadow filter -->
    <filter id="shadow" x="-50%" y="-50%" width="200%" height="200%">
      <feDropShadow dx="0" dy="8" stdDeviation="16" flood-opacity="0.25"/>
    </filter>
  </defs>
  
  <!-- Main background with rounded corners for iOS style -->
  <rect width="1024" height="1024" rx="180" ry="180" fill="url(#backgroundGradient)"/>
  
  <!-- Radio tower/antenna in center -->
  <g transform="translate(512, 200)">
    <!-- Tower base -->
    <rect x="-8" y="300" width="16" height="100" fill="#FFFFFF" opacity="0.9" rx="8"/>
    
    <!-- Tower main structure -->
    <rect x="-6" y="150" width="12" height="150" fill="#FFFFFF" opacity="0.9" rx="6"/>
    
    <!-- Tower top -->
    <circle cx="0" cy="150" r="12" fill="#FFFFFF" opacity="0.9"/>
    
    <!-- Antenna -->
    <line x1="0" y1="150" x2="0" y2="50" stroke="#FFFFFF" stroke-width="4" opacity="0.9"/>
    <circle cx="0" cy="50" r="6" fill="#FF6B35"/>
  </g>
  
  <!-- Radio waves emanating from tower -->
  <g transform="translate(512, 200)" opacity="0.8">
    <!-- Wave 1 (innermost) -->
    <circle cx="0" cy="150" r="80" fill="none" stroke="url(#waveGradient)" stroke-width="6" opacity="0.9">
      <animate attributeName="r" values="60;120;60" dur="2s" repeatCount="indefinite"/>
      <animate attributeName="opacity" values="0.9;0.3;0.9" dur="2s" repeatCount="indefinite"/>
    </circle>
    
    <!-- Wave 2 -->
    <circle cx="0" cy="150" r="120" fill="none" stroke="url(#waveGradient)" stroke-width="4" opacity="0.7">
      <animate attributeName="r" values="100;160;100" dur="2.5s" repeatCount="indefinite"/>
      <animate attributeName="opacity" values="0.7;0.2;0.7" dur="2.5s" repeatCount="indefinite"/>
    </circle>
    
    <!-- Wave 3 (outermost) -->
    <circle cx="0" cy="150" r="160" fill="none" stroke="url(#waveGradient)" stroke-width="3" opacity="0.5">
      <animate attributeName="r" values="140;200;140" dur="3s" repeatCount="indefinite"/>
      <animate attributeName="opacity" values="0.5;0.1;0.5" dur="3s" repeatCount="indefinite"/>
    </circle>
  </g>
  
  <!-- Stylized sound waves on sides -->
  <g transform="translate(200, 512)" opacity="0.6">
    <path d="M0,0 Q20,-20 40,0 Q20,20 0,0" fill="#FFFFFF"/>
    <path d="M10,-40 Q35,-65 60,-40 Q35,-15 10,-40" fill="#FFFFFF" opacity="0.7"/>
    <path d="M10,40 Q35,65 60,40 Q35,15 10,40" fill="#FFFFFF" opacity="0.7"/>
  </g>
  
  <g transform="translate(824, 512) scale(-1, 1)" opacity="0.6">
    <path d="M0,0 Q20,-20 40,0 Q20,20 0,0" fill="#FFFFFF"/>
    <path d="M10,-40 Q35,-65 60,-40 Q35,-15 10,-40" fill="#FFFFFF" opacity="0.7"/>
    <path d="M10,40 Q35,65 60,40 Q35,15 10,40" fill="#FFFFFF" opacity="0.7"/>
  </g>
  
  <!-- Golden Arrowhead (Guyana national symbol) subtly integrated -->
  <g transform="translate(512, 650)" opacity="0.3">
    <path d="M0,-30 L20,0 L0,30 L-20,0 Z" fill="#FFD700" filter="url(#shadow)"/>
  </g>
  
  <!-- Modern iOS-style highlight -->
  <ellipse cx="512" cy="200" rx="400" ry="150" fill="url(#waveGradient)" opacity="0.15"/>
</svg>
